# xmcd
# 
# Track frame offsets:
#     182
#     12897
#     25607
#     35960
#     50265
#     61077
#     72890
#     88482
#     101707
#     117102
# 
# Disc length: 1710
# 
# Revision: 0
# Processed by: cddbd v1.5.2PL0 Copyright (c) Steve Scherf et al.
# Submitted via: fre:ac v1.0.17
# 
DISCID=8006ac0a
DTITLE=Terry Sumsion - Ride The Storm
DYEAR=0
DGENRE=Country
TTITLE0=Ride The Storm
TTITLE1=If You Don't Use It
TTITLE2=Jinglin Spurs
TTITLE3=Our Lovin Place
TTITLE4=Just in Case
TTITLE5=Wake Me Up Im Dreamin
TTITLE6=Only One Heart
TTITLE7=How Married are you Marianne
TTITLE8=This Old Flame
TTITLE9=Evenin Sun
EXTD=
EXTT0=
EXTT1=
EXTT2=
EXTT3=
EXTT4=
EXTT5=
EXTT6=
EXTT7=
EXTT8=
EXTT9=
PLAYORDER=
